<svg width="50" height="50" viewBox="0 0 50 50" fill="none" xmlns="http://www.w3.org/2000/svg">
<path d="M48.3871 40.4121V33.0645C48.3871 32.0145 47.7105 31.1274 46.7742 30.7935V29.8387C46.7742 28.5048 45.6887 27.4194 44.3548 27.4194H35.3355C35.0016 26.4831 34.1145 25.8065 33.0645 25.8065V15.7153C33.0645 13.6911 31.9726 11.8121 30.2137 10.8105L14.7548 2.00323C14.0532 0.81129 12.771 0 11.2903 0C9.07661 0 7.27581 1.79516 7.26048 4.00565H7.25806L6.475 27.4984C4.62581 27.8645 3.22581 29.4968 3.22581 31.4516C3.22581 32.3186 3.50645 33.1169 3.97419 33.7758L1.67984 36.4516C0.596774 37.7153 0 39.3274 0 40.9919C0 42.8565 0.725806 44.6081 2.04355 45.9258L4.46371 48.346C5.52984 49.4121 6.94758 50 8.45564 50H14.5161H15.3226H16.9355V48.3871H15.3226V43.9677L12.5524 41.7516C11.7113 41.079 11.1831 40.1194 11.0637 39.0484L10.4855 33.8444C10.9847 33.1726 11.2903 32.35 11.2903 31.4516C11.2903 30.2016 10.7065 29.0968 9.81048 28.3565L13.5597 7.36129C13.7016 7.26371 13.8282 7.14758 13.9573 7.03306L22.2315 15.3073C21.9476 15.7871 21.7742 16.3387 21.7742 16.9355C21.7742 18.4339 22.8065 19.6863 24.1935 20.0468V25.8065H23.9032C22.754 25.8065 21.7556 26.6242 21.5306 27.7508L19.371 38.5516L19.3597 40.4073C18.3605 41.4258 17.7419 42.8186 17.7419 44.3548C17.7419 47.4669 20.2742 50 23.3871 50H44.3548C47.4677 50 50 47.4669 50 44.3548C50 42.821 49.3831 41.4298 48.3871 40.4121ZM7.25806 29.0323C8.59194 29.0323 9.67742 30.1177 9.67742 31.4516C9.67742 32.7855 8.59194 33.871 7.25806 33.871C5.92419 33.871 4.83871 32.7855 4.83871 31.4516C4.83871 30.1177 5.92419 29.0323 7.25806 29.0323ZM11.5452 43.0113L13.7097 44.7419V45.1613H12.0968V46.7742H13.7097V48.3871H8.45564C7.37823 48.3871 6.36532 47.9669 5.60403 47.2056L3.18387 44.7855C2.17097 43.7726 1.6129 42.425 1.6129 40.9919C1.6129 39.7121 2.07177 38.4726 2.90484 37.5008L5.15565 34.8758C5.76935 35.254 6.48548 35.4839 7.25806 35.4839C7.88468 35.4839 8.47016 35.3282 9 35.0718L9.46129 39.2258C9.62742 40.725 10.3677 42.0694 11.5452 43.0113ZM8.3121 27.5766C8.23629 27.5556 8.16613 27.5234 8.08952 27.5073L8.76774 7.15161C9.46048 7.71371 10.3306 8.06452 11.2903 8.06452C11.4669 8.06452 11.6347 8.03468 11.8056 8.0121L8.3121 27.5766ZM11.2903 6.45161C9.95645 6.45161 8.87097 5.36613 8.87097 4.03226C8.87097 2.69839 9.95645 1.6129 11.2903 1.6129C12.6242 1.6129 13.7097 2.69839 13.7097 4.03226C13.7097 5.36613 12.6242 6.45161 11.2903 6.45161ZM35.4839 32.2581H37.0968V30.6452H35.4839V29.0323H44.3548C44.7992 29.0323 45.1613 29.3935 45.1613 29.8387V30.6452H38.7097V32.2581H45.9677C46.4121 32.2581 46.7742 32.6194 46.7742 33.0645V39.2621C46.0395 38.9121 45.2218 38.7097 44.3548 38.7097H35.4839V32.2581ZM14.9347 5.72984C15.1573 5.25323 15.2879 4.72984 15.3081 4.175L29.4153 12.2121C30.6718 12.9274 31.4516 14.2702 31.4516 15.7153V25.8065H25.8065V20.0468C27.1935 19.6863 28.2258 18.4339 28.2258 16.9355C28.2258 15.1565 26.779 13.7097 25 13.7097C24.4032 13.7097 23.8516 13.8831 23.3718 14.1669L14.9347 5.72984ZM23.3871 16.9355C23.3871 16.046 24.1105 15.3226 25 15.3226C25.8895 15.3226 26.6129 16.046 26.6129 16.9355C26.6129 17.825 25.8895 18.5484 25 18.5484C24.1105 18.5484 23.3871 17.825 23.3871 16.9355ZM20.9677 38.7895L23.1121 28.0677C23.1871 27.6919 23.5202 27.4194 23.9032 27.4194H33.0645C33.5089 27.4194 33.871 27.7806 33.871 28.2258V38.7097H23.3871C22.5202 38.7097 21.7024 38.9121 20.9677 39.2621V38.7895ZM44.3548 48.3871H23.3871C21.1637 48.3871 19.3548 46.5782 19.3548 44.3548C19.3548 42.1315 21.1637 40.3226 23.3871 40.3226H44.3548C46.5782 40.3226 48.3871 42.1315 48.3871 44.3548C48.3871 46.5782 46.5782 48.3871 44.3548 48.3871Z" fill="#E69A37"/>
</svg>
